<svg xmlns="http://www.w3.org/2000/svg" x="0px" y="0px" viewBox="11.773000717163086 11.194999694824219 40.454002380371094 40.11000061035156" enable-background="new 0 0 64 64">
<g>
	
		<path fill="#FFFFFF" stroke="#000000" stroke-width="1" stroke-linecap="round" stroke-linejoin="round" stroke-miterlimit="10" d="   M39.537,50.805H22.391c-5.588,0-10.118-4.53-10.118-10.118V26.935c0-5.588,4.53-10.118,10.118-10.118h19.218   c5.588,0,10.118,4.53,10.118,10.118v12.052c0,1.086-0.444,2.125-1.23,2.875l-8.215,7.844   C41.542,50.411,40.559,50.805,39.537,50.805z"/>
	
		<path fill="#FFFFFF" stroke="#000000" stroke-width="1" stroke-linecap="round" stroke-linejoin="round" stroke-miterlimit="10" d="   M49.963,39.756h-5.76c-2.182,0-3.951,1.769-3.951,3.951v5.371c0,0.963,1.154,1.457,1.851,0.792l8.616-8.226   C51.433,40.961,50.95,39.756,49.963,39.756z"/>
</g>
<g>
	
		<path fill="#FFFFFF" stroke="#000000" stroke-width="1" stroke-linecap="round" stroke-linejoin="round" stroke-miterlimit="10" d="   M25.169,11.695c-0.827,0-1.5,0.673-1.5,1.5v7.731c0,0.827,0.673,1.5,1.5,1.5s1.5-0.673,1.5-1.5v-7.731   C26.669,12.368,25.997,11.695,25.169,11.695z"/>
	
		<path fill="#FFFFFF" stroke="#000000" stroke-width="1" stroke-linecap="round" stroke-linejoin="round" stroke-miterlimit="10" d="   M37.556,11.695c-0.827,0-1.5,0.673-1.5,1.5v7.731c0,0.827,0.673,1.5,1.5,1.5s1.5-0.673,1.5-1.5v-7.731   C39.056,12.368,38.383,11.695,37.556,11.695z"/>
</g>
<g>
	<g>
		
			<line fill="none" stroke="#000000" stroke-width="1" stroke-linecap="round" stroke-linejoin="round" stroke-miterlimit="10" x1="22.614" y1="34.182" x2="28.049" y2="34.182"/>
		
			<line fill="none" stroke="#000000" stroke-width="1" stroke-linecap="round" stroke-linejoin="round" stroke-miterlimit="10" x1="36.302" y1="34.182" x2="41.737" y2="34.182"/>
		
			<line fill="none" stroke="#000000" stroke-width="1" stroke-linecap="round" stroke-linejoin="round" stroke-miterlimit="10" x1="22.614" y1="41.345" x2="28.049" y2="41.345"/>
	</g>
	
		<line fill="none" stroke="#000000" stroke-width="1" stroke-linejoin="round" stroke-miterlimit="10" x1="13.257" y1="26.875" x2="50.728" y2="26.875"/>
</g>
<g>
	<path fill="none" stroke="#000000" stroke-width="1" stroke-linecap="round" stroke-linejoin="round" stroke-miterlimit="10" d="   M25.169,13.195v7.731"/>
	
		<line fill="none" stroke="#000000" stroke-width="1" stroke-linecap="round" stroke-linejoin="round" stroke-miterlimit="10" x1="37.556" y1="20.889" x2="37.556" y2="13.195"/>
</g>
</svg>