<svg xmlns="http://www.w3.org/2000/svg" x="0px" y="0px" viewBox="6.4182305335998535 6.4652099609375 35.16354751586914 35.069580078125" enable-background="new 0 0 48 48">
<g>
	<path fill="none" stroke="#000000" stroke-width="1" stroke-linecap="round" stroke-linejoin="round" stroke-miterlimit="10" d="   M30.53675,30.85297h3.54188c1.05436,0,1.90909-0.85473,1.90909-1.90909v-4.90909"/>
</g>
<g>
	<g>
		
			<circle fill="#FFFFFF" stroke="#000000" stroke-width="1" stroke-linecap="round" stroke-linejoin="round" stroke-miterlimit="10" cx="32.19471" cy="15.85227" r="8.88706"/>
		<path fill="none" stroke="#000000" stroke-width="1" stroke-linecap="round" stroke-linejoin="round" stroke-miterlimit="10" d="    M23.30765,15.85227c0-2.15163,3.97887-3.89588,8.88706-3.89588s8.88706,1.74424,8.88706,3.89588"/>
		<path fill="none" stroke="#000000" stroke-width="1" stroke-linecap="round" stroke-linejoin="round" stroke-miterlimit="10" d="    M41.08178,15.85227c0,2.15163-3.97887,3.89588-8.88706,3.89588s-8.88706-1.74425-8.88706-3.89588"/>
		<path fill="none" stroke="#000000" stroke-width="1" stroke-linecap="round" stroke-linejoin="round" stroke-miterlimit="10" d="    M32.19471,6.96521c2.15163,0,3.89588,3.97887,3.89588,8.88706s-1.74424,8.88706-3.89588,8.88706"/>
		<path fill="none" stroke="#000000" stroke-width="1" stroke-linecap="round" stroke-linejoin="round" stroke-miterlimit="10" d="    M32.19471,24.73934c-2.15164,0-3.89588-3.97887-3.89588-8.88706s1.74424-8.88706,3.89588-8.88706"/>
	</g>
</g>
<g>
	<g>
		
			<path fill="#FFFFFF" stroke="#000000" stroke-width="1" stroke-linecap="round" stroke-linejoin="round" stroke-miterlimit="10" d="    M32.818,15.35161l-10.6246-4.82449c-1.17871-0.53524-2.46442-0.53524-3.64313,0l-10.6246,4.82449    c-0.61394,0.27878-1.00744,0.8857-1.00744,1.55382v1.55901c0,0.94428,0.77402,1.70977,1.72882,1.70977h23.44958    c0.9548,0,1.72882-0.76549,1.72882-1.70977v-1.55901C33.82544,16.23731,33.43194,15.6304,32.818,15.35161z"/>
		
			<path fill="#FFFFFF" stroke="#000000" stroke-width="1" stroke-linecap="round" stroke-linejoin="round" stroke-miterlimit="10" d="    M30.93832,37.74404H9.80535c-0.67374,0-1.21991-0.54617-1.21991-1.21991V35.6732c0-0.67374,0.54617-1.21991,1.21991-1.21991    h21.13297c0.67374,0,1.21991,0.54617,1.21991,1.21991v0.85094C32.15823,37.19787,31.61205,37.74404,30.93832,37.74404z"/>
		
			<path fill="#FFFFFF" stroke="#000000" stroke-width="1" stroke-linecap="round" stroke-linejoin="round" stroke-miterlimit="10" d="    M32.57201,41.03479H8.17166c-0.69225,0-1.25343-0.56118-1.25343-1.25343v-0.78389c0-0.69225,0.56118-1.25343,1.25343-1.25343    h24.40036c0.69225,0,1.25343,0.56118,1.25343,1.25343v0.78389C33.82544,40.47361,33.26426,41.03479,32.57201,41.03479z"/>
		
			<rect x="9.72232" y="22.80984" fill="#FFFFFF" stroke="#000000" stroke-width="1" stroke-linecap="round" stroke-linejoin="round" stroke-miterlimit="10" width="3.20723" height="11.64345"/>
		
			<rect x="27.32951" y="22.80984" fill="#FFFFFF" stroke="#000000" stroke-width="1" stroke-linecap="round" stroke-linejoin="round" stroke-miterlimit="10" width="3.20723" height="11.64345"/>
		
			<path fill="#FFFFFF" stroke="#000000" stroke-width="1" stroke-linecap="round" stroke-linejoin="round" stroke-miterlimit="10" d="    M31.50208,20.94905v1.06296c0,0.42793-0.33026,0.77483-0.73765,0.77483h-3.6626c-0.40739,0-0.73765-0.3469-0.73765-0.77483    v-1.06296c0-0.42793,0.33026-0.77483,0.73765-0.77483h3.6626C31.17182,20.17421,31.50208,20.52112,31.50208,20.94905z"/>
		
			<path fill="#FFFFFF" stroke="#000000" stroke-width="1" stroke-linecap="round" stroke-linejoin="round" stroke-miterlimit="10" d="    M13.89489,20.94905v1.06296c0,0.42793-0.33026,0.77483-0.73765,0.77483h-3.6626c-0.40739,0-0.73765-0.3469-0.73765-0.77483    v-1.06296c0-0.42793,0.33026-0.77483,0.73765-0.77483h3.6626C13.56464,20.17421,13.89489,20.52112,13.89489,20.94905z"/>
	</g>
</g>
<g>
	<g>
		<path fill="none" stroke="#000000" stroke-width="1" stroke-linecap="round" stroke-linejoin="round" stroke-miterlimit="10" d="    M18.71104,30.22101c0.35993,0.50048,0.96946,0.82953,1.6608,0.82953c1.10614,0,2.00285-0.84236,2.00285-1.88147    c0-1.03911-0.89671-1.88147-2.00285-1.88147s-2.00284-0.84236-2.00284-1.88147c0-1.03911,0.8967-1.88147,2.00284-1.88147    c0.79225,0,1.47705,0.43211,1.80192,1.05914"/>
		
			<line fill="none" stroke="#000000" stroke-width="1" stroke-linecap="round" stroke-linejoin="round" stroke-miterlimit="10" x1="20.37183" y1="23.52466" x2="20.37183" y2="22.6831"/>
		
			<line fill="none" stroke="#000000" stroke-width="1" stroke-linecap="round" stroke-linejoin="round" stroke-miterlimit="10" x1="20.37183" y1="31.94441" x2="20.37183" y2="31.05054"/>
	</g>
</g>
</svg>