<svg xmlns="http://www.w3.org/2000/svg" x="0px" y="0px" viewBox="6.4029998779296875 14.485400199890137 35.19409942626953 19.000099182128906" enable-background="new 0 0 48 48">
<g>
	<g>
		
			<path fill="#FFFFFFFF" stroke="#000000" stroke-width="1" stroke-linecap="round" stroke-linejoin="round" stroke-miterlimit="10" d="    M41.0971,29.9759L41.0971,29.9759c0,1.116-0.998,2.0207-2.2291,2.0207h-8.8694c-1.2311,0-2.2291-0.9047-2.2291-2.0207v0    c0-2.6969,2.4117-4.8831,5.3867-4.8831h2.5543C38.6854,25.0928,41.0971,27.279,41.0971,29.9759z"/>
		
			<circle fill="#FFFFFFFF" stroke="#000000" stroke-width="1" stroke-linecap="round" stroke-linejoin="round" stroke-miterlimit="10" cx="34.4332" cy="19.4048" r="3.4014"/>
	</g>
	<g>
		
			<path fill="#FFFFFFFF" stroke="#000000" stroke-width="1" stroke-linecap="round" stroke-linejoin="round" stroke-miterlimit="10" d="    M20.2306,29.9759L20.2306,29.9759c0,1.116-0.998,2.0207-2.2291,2.0207H9.1321c-1.2311,0-2.2291-0.9047-2.2291-2.0207v0    c0-2.6969,2.4117-4.8831,5.3867-4.8831h2.5543C17.8189,25.0928,20.2306,27.279,20.2306,29.9759z"/>
		
			<circle fill="#FFFFFFFF" stroke="#000000" stroke-width="1" stroke-linecap="round" stroke-linejoin="round" stroke-miterlimit="10" cx="13.5668" cy="19.4048" r="3.4014"/>
	</g>
</g>
<g>
	<g>
	</g>
	<g>
		
			<path fill="#FFFFFFFF" stroke="#000000" stroke-width="1" stroke-linecap="round" stroke-linejoin="round" stroke-miterlimit="10" d="    M31.5668,30.7112L31.5668,30.7112c0,1.2561-1.1232,2.2743-2.5088,2.2743h-9.9823c-1.3856,0-2.5089-1.0182-2.5089-2.2743v0    c0-3.0352,2.7143-5.4958,6.0626-5.4958h2.8748C28.8525,25.2154,31.5668,27.6759,31.5668,30.7112z"/>
		
			<circle fill="#FFFFFFFF" stroke="#000000" stroke-width="1" stroke-linecap="round" stroke-linejoin="round" stroke-miterlimit="10" cx="24.0668" cy="18.8136" r="3.8282"/>
	</g>
</g>
</svg>