<?xml version="1.0" encoding="iso-8859-1"?>
<!-- Uploaded to: SVG Repo, www.svgrepo.com, Generator: SVG Repo Mixer Tools -->
<svg fill="#000000" height="800px" width="800px" version="1.1" id="Layer_1" xmlns="http://www.w3.org/2000/svg" xmlns:xlink="http://www.w3.org/1999/xlink" 
	 viewBox="0 0 512.001 512.001" xml:space="preserve">
<g>
	<g>
		<path d="M505.469,73.457l-48.808-48.81c-4.182-4.182-9.854-6.533-15.769-6.533s-11.588,2.349-15.77,6.533l-48.808,48.81
			c-3.793,3.793-6.093,8.826-6.477,14.174c-3.076,42.907-26.335,95.191-63.514,145.665c-12.143-15.715-26.97-29.285-43.911-40.024
			c-21.022-13.326-44.586-21.796-69.13-25.005V70.165c0-7.113-3.342-13.433-8.528-17.517c-11.689-15.446-42.44-49.398-86.959-49.4
			C52.696,3.249,13.353,50.798,9.016,56.22C3.192,63.5,2.511,73.633,7.308,81.626c1.357,2.263,33.909,55.432,90.489,55.432
			c19.849,0,36.967-6.407,50.882-14.752v45.94C64.898,179.209,0,251.053,0,337.774c0,37.839,12.111,73.675,35.018,103.672
			c0.057,0.079,0.113,0.156,0.171,0.233c0.034,0.046,0.067,0.095,0.103,0.141c0.043,0.057,0.095,0.104,0.14,0.159
			c0.445,0.568,0.919,1.115,1.423,1.643c0.095,0.098,0.184,0.204,0.281,0.299c0.036,0.037,0.07,0.079,0.106,0.114l48.945,48.762
			c2.762,2.753,6.2,4.732,9.966,5.742c25.283,6.778,51.404,10.213,77.643,10.213c79.821,0,154.878-31.089,211.32-87.53
			c37.788-37.788,64.776-84.974,78.047-136.457c11.789-45.734,12.571-93.807,2.371-139.834l39.935-39.937
			C514.178,96.286,514.178,82.166,505.469,73.457z M97.796,92.455c-18.212,0-32.947-11.482-42.067-21.056
			c11.995-11.332,28.725-23.548,42.066-23.548c19.046,0,34.887,13.054,44.434,23.369C132.612,80.7,116.848,92.455,97.796,92.455z
			 M63.703,404.586c-12.516-19.991-19.099-42.852-19.099-66.812c0-69.684,56.693-126.377,126.377-126.377
			c43.546,0,83.047,21.831,106.197,57.817c-6.835,7.688-13.956,15.271-21.379,22.694C194.161,353.545,121.86,395.711,63.703,404.586
			z M353.574,389.686c-48.022,48.02-111.869,74.466-179.781,74.466c-20.388,0-40.692-2.437-60.439-7.247l-14.468-14.413
			c61.207-17.132,128.86-59.454,188.45-119.044c59.596-59.596,101.889-127.241,119.001-188.422l14.419,14.419
			C441.703,235.439,416.257,327.004,353.574,389.686z M440.89,106.496l-17.269-17.269l17.269-17.271l17.269,17.271L440.89,106.496z"
			/>
	</g>
</g>
</svg>