<svg xmlns="http://www.w3.org/2000/svg" x="0px" y="0px" viewBox="18.408000946044922 14.53499984741211 27.18199920654297 34.93000030517578" enable-background="new 0 0 64 64">
<g>
	
		<path fill="#FFFFFF" stroke="#000000" stroke-width="1" stroke-linecap="round" stroke-linejoin="round" stroke-miterlimit="10" d="   M45.09,20.185c0-2.85-2.31-5.15-5.16-5.15H24.07c-2.85,0-5.16,2.3-5.16,5.15l0.006,13.961h-0.004v9.662   c0,0.026-0.009,0.312,0,0.465c0.15,2.638,2.464,4.692,5.157,4.692h16.588c2.447,0,4.431-1.984,4.431-4.431V35.26   c0-0.008,0.002-0.015,0.002-0.022V20.185z"/>
</g>
<g>
	
		<path fill="#FFFFFF" stroke="#000000" stroke-width="1" stroke-linecap="round" stroke-linejoin="round" stroke-miterlimit="10" d="   M45.09,20.185v15.053c0,2.85-2.31,5.16-5.16,5.16c0,0-16.53-0.01-16.61-0.01c-2.33,0-4.24,1.81-4.4,4.1l-0.01-24.303   c0-2.85,2.31-5.15,5.16-5.15h15.86C42.78,15.035,45.09,17.335,45.09,20.185z"/>
	<g>
	</g>
	
		<line fill="none" stroke="#000000" stroke-width="1" stroke-linecap="round" stroke-linejoin="round" stroke-miterlimit="10" x1="23.364" y1="15.25" x2="23.364" y2="40.388"/>
</g>
<g>
	<path fill="none" stroke="#000000" stroke-width="1" stroke-linecap="round" stroke-linejoin="round" stroke-miterlimit="10" d="   M30.554,24.618c0-1.88,1.524-3.405,3.405-3.405c1.841,0,3.405,1.564,3.405,3.405c0,1.577-1.072,2.903-2.527,3.29   c-0.524,0.139-0.878,0.626-0.878,1.168v1.597"/>
	
		<line fill="none" stroke="#000000" stroke-width="1" stroke-linecap="round" stroke-linejoin="round" stroke-miterlimit="10" x1="33.959" y1="34.126" x2="33.959" y2="34.126"/>
	
		<line fill="none" stroke="#000000" stroke-width="1" stroke-linecap="round" stroke-linejoin="round" stroke-miterlimit="10" x1="23.907" y1="44.488" x2="40.091" y2="44.488"/>
</g>
</svg>