<svg xmlns="http://www.w3.org/2000/svg" x="0px" y="0px" viewBox="6.989199638366699 6.149597644805908 34.02150344848633 35.70090103149414" enable-background="new 0 0 48 48">
<g>
	
		<path fill="#FFFFFFFF" stroke="#E6E9EC" stroke-width="1.5" stroke-linecap="round" stroke-linejoin="round" stroke-miterlimit="10" d="   M25.3629,41.1005H12.1136c-2.4159,0-4.3744-1.9585-4.3744-4.3744V14.028c0-2.4159,1.9585-4.3744,4.3744-4.3744h13.2492   c2.4159,0,4.3744,1.9585,4.3744,4.3744v22.6982C29.7372,39.142,27.7788,41.1005,25.3629,41.1005z"/>
</g>
<g>
	
		<path fill="#FFFFFFFF" stroke="#E6E9EC" stroke-width="1.5" stroke-linecap="round" stroke-linejoin="round" stroke-miterlimit="10" d="   M32.5507,14.2847c0.4414,0.4703,0.687,1.091,0.687,1.7359l0,17.519c0,2.4125-1.9111,4.3682-4.2686,4.3682l-13.4607,0   c-2.3575,0-4.2686-1.9557-4.2686-4.3682l0-22.2718c0-2.4125,1.9111-4.3682,4.2686-4.3682l9.0974,0   c0.7007,0,1.3701,0.2898,1.8496,0.8007L32.5507,14.2847z"/>
	
		<line fill="none" stroke="#E6E9EC" stroke-width="1.5" stroke-linecap="round" stroke-linejoin="round" stroke-miterlimit="10" x1="15.7667" y1="16.9677" x2="19.8543" y2="16.9677"/>
	<g>
		
			<line fill="none" stroke="#E6E9EC" stroke-width="1.5" stroke-linecap="round" stroke-linejoin="round" stroke-miterlimit="10" x1="15.7666" y1="26.8075" x2="15.7666" y2="29.2388"/>
		
			<line fill="none" stroke="#E6E9EC" stroke-width="1.5" stroke-linecap="round" stroke-linejoin="round" stroke-miterlimit="10" x1="19.0338" y1="25.0356" x2="19.0338" y2="29.2388"/>
		
			<line fill="none" stroke="#E6E9EC" stroke-width="1.5" stroke-linecap="round" stroke-linejoin="round" stroke-miterlimit="10" x1="22.3009" y1="23.9677" x2="22.3009" y2="29.2388"/>
	</g>
	
		<path fill="#FFFFFFFF" stroke="#E6E9EC" stroke-width="1.5" stroke-linecap="round" stroke-linejoin="round" stroke-miterlimit="10" d="   M31.8045,15.5769l-4.0968,0c-1.4698,0-2.6613-1.1915-2.6613-2.6613l0-4.5634c0-0.7742,0.9495-1.1465,1.4758-0.5787l5.9067,6.3733   C32.934,14.6918,32.5475,15.5769,31.8045,15.5769z"/>
</g>
<g>
	
		<circle fill="#FFFFFFFF" stroke="#E6E9EC" stroke-width="1.5" stroke-linecap="round" stroke-linejoin="round" stroke-miterlimit="10" cx="33.2377" cy="25.4677" r="7.023"/>
</g>
<g>
	<g>
	</g>
	
		<path fill="#FFFFFFFF" stroke="#E6E9EC" stroke-width="1.5" stroke-linecap="round" stroke-linejoin="round" stroke-miterlimit="10" d="   M33.2377,25.4677l-4.3297-5.5296c1.2356-0.9675,2.7604-1.4934,4.3297-1.4934c3.8527,0,7.023,3.1703,7.023,7.023H33.2377z"/>
</g>
</svg>