<svg xmlns="http://www.w3.org/2000/svg" x="0px" y="0px" viewBox="10.114500045776367 6.362700462341309 27.7710018157959 35.274715423583984" enable-background="new 0 0 48 48">
<g>
	<g>
		
			<path fill="#FFFFFF" stroke="#000000" stroke-width="1" stroke-linecap="round" stroke-linejoin="round" stroke-miterlimit="10" d="    M16.8871,34.5993c0,0,1.7037-1.1291,4.279-0.7329s5.7054,1.1886,7.2506,1.3867c1.5452,0.1981,2.0603,1.1094,2.0603,1.1094    s3.8168-1.7301,4.728-2.0867c0.9113-0.3566,2.4697,0.8056,1.2018,2.0339c-1.2679,1.2282-3.3413,2.4829-5.2827,3.5923    c-1.6343,0.9339-3.8564,1.3339-5.4016,1.215c-1.5452-0.1189-8.8354-1.5953-8.8354-1.5953V34.5993z"/>
		<path fill="none" stroke="#000000" stroke-width="1" stroke-linecap="round" stroke-linejoin="round" stroke-miterlimit="10" d="    M25.3263,37.6699c0,0,2.4963,0.4587,3.6847,0.4358c2.0603-0.0396,1.466-1.7433,1.466-1.7433"/>
		
			<path fill="#FFFFFF" stroke="#000000" stroke-width="1" stroke-linecap="round" stroke-linejoin="round" stroke-miterlimit="10" d="    M15.9229,40.9584h-3.8428c-0.5325,0-0.9642-0.4317-0.9642-0.9642v-5.4409c0-0.5325,0.4317-0.9642,0.9642-0.9642h3.8428    c0.5325,0,0.9642,0.4317,0.9642,0.9642v5.4409C16.8871,40.5267,16.4554,40.9584,15.9229,40.9584z"/>
	</g>
</g>
<g>
	
		<path fill="#FFFFFF" stroke="#000000" stroke-width="1" stroke-linecap="round" stroke-linejoin="round" stroke-miterlimit="10" d="   M33.9103,30.3255H14.0897c-0.9305,0-1.6847-0.7543-1.6847-1.6847v-8.6219c0-0.9305,0.7543-1.6847,1.6847-1.6847h19.8205   c0.9305,0,1.6847,0.7543,1.6847,1.6847v8.6219C35.595,29.5712,34.8407,30.3255,33.9103,30.3255z"/>
	<path fill="none" stroke="#000000" stroke-width="1" stroke-linecap="round" stroke-linejoin="round" stroke-miterlimit="10" d="   M32.4267,23.2033v2.2529c-0.9884,0-1.7878,0.7995-1.7878,1.7806H17.3611c0-0.9811-0.7994-1.7806-1.7878-1.7806v-2.2529   c0.9884,0,1.7878-0.7995,1.7878-1.7806h13.2778C30.6389,22.4039,31.4383,23.2033,32.4267,23.2033z"/>
	
		<circle fill="none" stroke="#000000" stroke-width="1" stroke-linecap="round" stroke-linejoin="round" stroke-miterlimit="10" cx="24" cy="24.3298" r="2.7253"/>
	
		<path fill="#FFFFFF" stroke="#000000" stroke-width="1" stroke-linecap="round" stroke-linejoin="round" stroke-miterlimit="10" d="   M18.439,15.465l4.5864,4.7617c0.627,0.651,1.6746,0.6336,2.2797-0.0378l4.2913-4.7618c0.9034-1.0024,0.192-2.6012-1.1574-2.6012   h-1.662V8.8632c0-1.1048-0.8956-2.0005-2.0005-2.0005h-1.5527c-1.1048,0-2.0005,0.8956-2.0005,2.0005v3.9629h-1.662   C18.1871,12.826,17.4858,14.4754,18.439,15.465z"/>
</g>
<g>
	<g>
		
			<line fill="none" stroke="#000000" stroke-width="1" stroke-linecap="round" stroke-linejoin="round" stroke-miterlimit="10" x1="36.0141" y1="10.8882" x2="36" y2="15.0705"/>
		
			<polyline fill="none" stroke="#000000" stroke-width="1" stroke-linecap="round" stroke-linejoin="round" stroke-miterlimit="10" points="    37.3855,13.685 36,15.0705 34.6145,13.685   "/>
	</g>
	<g>
		
			<line fill="none" stroke="#000000" stroke-width="1" stroke-linecap="round" stroke-linejoin="round" stroke-miterlimit="10" x1="12.0141" y1="10.3632" x2="12" y2="14.5455"/>
		
			<polyline fill="none" stroke="#000000" stroke-width="1" stroke-linecap="round" stroke-linejoin="round" stroke-miterlimit="10" points="    13.3855,13.16 12,14.5455 10.6145,13.16   "/>
	</g>
</g>
</svg>