<svg xmlns="http://www.w3.org/2000/svg" x="0px" y="0px" viewBox="15.220000267028809 15.136999130249023 33.55900192260742 34.87000274658203" enable-background="new 0 0 64 64">
<g>
	
		<path fill="#FFFFFF" stroke="#000000" stroke-width="1" stroke-linecap="round" stroke-linejoin="round" stroke-miterlimit="10" d="   M15.72,41.764V23.38c0-4.276,3.467-7.743,7.743-7.743h17.073c4.276,0,7.743,3.467,7.743,7.743v18.384   c0,4.276-3.467,7.743-7.743,7.743H23.463C19.187,49.507,15.72,46.04,15.72,41.764z"/>
</g>
<g>
	<path fill="none" stroke="#000000" stroke-width="1" stroke-linecap="round" stroke-linejoin="round" stroke-miterlimit="10" d="   M42.007,47.035v0.474c0,1.104-0.895,1.998-1.998,1.998H23.992c-1.104,0-1.998-0.895-1.998-1.998v-0.474   c0-4.95,4.013-8.963,8.963-8.963h2.086C37.993,38.071,42.007,42.084,42.007,47.035z"/>
	
		<circle fill="none" stroke="#000000" stroke-width="1" stroke-linecap="round" stroke-linejoin="round" stroke-miterlimit="10" cx="32" cy="29.224" r="5.634"/>
</g>
</svg>